# Blender v2.79 (sub 0) OBJ File: 'Human.blend'
# www.blender.org
mtllib head.mtl
o Cube_Cube.001
v 0.328397 5.757551 0.840320
v 0.306181 6.248655 0.766317
v 0.306181 5.267922 0.796696
v 0.328397 6.071002 -0.930517
v 0.306181 6.397391 -0.874961
v 0.304041 5.724738 -0.903509
v 0.799408 6.054762 -0.091079
v 0.756851 6.411616 -0.093790
v 0.748032 5.974198 0.305715
v 0.712253 5.635200 -0.065368
v 0.756512 6.071002 -0.461767
v 0.706071 6.397391 -0.437461
v 0.706071 6.362388 0.269591
v 0.664497 5.533341 0.307662
v 0.691226 5.704680 -0.415250
v 0.318261 4.821846 0.080915
v 0.307137 4.723097 0.381812
v 0.328397 6.880366 -0.093790
v 0.306181 6.834891 -0.437461
v 0.306181 6.803424 0.269260
v 0.542789 5.431555 0.616836
v 0.591092 5.856814 0.642289
v 0.555319 6.276464 0.580216
v 0.283965 6.615642 0.576185
v 0.283965 4.861220 0.638208
v 0.283965 6.669961 -0.710031
v 0.555319 6.373086 -0.710031
v 0.595784 6.070742 -0.754207
v 0.552721 5.723081 -0.713539
v 0.292471 5.380432 -0.825314
v 0.555319 6.669961 -0.413156
v 0.595784 6.705403 -0.095937
v 0.555319 6.642031 0.238891
v 0.547151 5.110555 0.316220
v 0.568259 5.219685 -0.018064
v 0.529231 5.340841 -0.371982
v 0.472215 5.096821 0.538514
v 0.473331 6.532183 0.473332
v 0.455804 5.438834 -0.589818
v 0.473331 6.580262 -0.620332
v 0.503315 5.089710 -0.129419
v 0.276444 5.273832 -0.827248
v 0.445116 5.288998 -0.642620
v 0.324913 4.680603 0.063351
v 0.525016 5.210722 -0.476577
v 0.007850 5.721539 0.902725
v 0.007850 6.259078 0.827464
v 0.007850 5.220286 0.856703
v -0.312697 5.757551 0.840320
v -0.290481 6.248655 0.766317
v -0.290481 5.267922 0.796696
v 0.007850 6.071002 -0.989545
v 0.007850 6.421697 -0.930517
v -0.312697 6.071002 -0.930517
v 0.007850 5.724407 -0.964153
v -0.290481 6.397391 -0.874961
v -0.288341 5.724738 -0.903509
v -0.783708 6.054762 -0.091079
v -0.741151 6.411616 -0.093790
v -0.732332 5.974198 0.305715
v -0.696553 5.635200 -0.065368
v -0.740812 6.071002 -0.461767
v -0.690371 6.397391 -0.437462
v -0.690371 6.362388 0.269591
v -0.648797 5.533341 0.307662
v -0.675526 5.704680 -0.415250
v 0.007850 4.640307 0.181390
v 0.007850 4.646570 0.446068
v -0.302561 4.821846 0.080915
v -0.291437 4.723097 0.381811
v 0.007850 6.938070 -0.091522
v 0.007850 6.890447 -0.461767
v 0.007850 6.855433 0.299646
v -0.312697 6.880366 -0.093790
v -0.290481 6.834891 -0.437462
v -0.290481 6.803424 0.269260
v -0.527089 5.431555 0.616836
v -0.575392 5.856814 0.642289
v -0.539619 6.276464 0.580216
v -0.268265 6.615642 0.576185
v 0.007850 6.656739 0.627145
v 0.007850 4.818959 0.688236
v -0.268265 4.861220 0.638208
v 0.007850 6.714232 -0.754302
v -0.268265 6.669961 -0.710031
v -0.539619 6.373086 -0.710031
v -0.580084 6.070742 -0.754207
v -0.537021 5.723081 -0.713539
v -0.276771 5.380432 -0.825314
v 0.007850 5.381792 -0.862303
v -0.539619 6.669961 -0.413156
v -0.580084 6.705403 -0.095937
v -0.539619 6.642031 0.238891
v -0.531451 5.110555 0.316220
v -0.552559 5.219685 -0.018064
v -0.513532 5.340841 -0.371982
v -0.456515 5.096821 0.538514
v -0.457631 6.532183 0.473332
v -0.440104 5.438834 -0.589818
v -0.457631 6.580262 -0.620332
v -0.487615 5.089710 -0.129419
v -0.260744 5.273832 -0.827248
v -0.429416 5.288998 -0.642620
v 0.007850 5.284717 -0.905088
v -0.309213 4.680603 0.063351
v 0.007850 4.541836 0.147714
v -0.509316 5.210722 -0.476577
vn 0.1879 0.1450 0.9714
vn 0.2098 0.4495 0.8683
vn 0.5676 0.1569 0.8082
vn 0.5332 0.4352 0.7254
vn 0.2053 -0.0927 0.9743
vn 0.6352 -0.1067 0.7650
vn 0.2303 -0.3704 0.8998
vn 0.7029 -0.2947 0.6474
vn 0.1859 0.1699 -0.9678
vn 0.5479 0.1841 -0.8161
vn 0.2060 0.5116 -0.8341
vn 0.5301 0.4845 -0.6959
vn 0.1899 -0.0807 -0.9785
vn 0.1600 -0.2528 -0.9542
vn 0.5732 -0.1345 -0.8083
vn 0.7007 -0.3250 -0.6352
vn 0.9821 0.1377 -0.1284
vn 0.8628 0.4811 -0.1553
vn 0.8587 0.1766 -0.4811
vn 0.7433 0.4730 -0.4730
vn 0.9811 0.1192 0.1522
vn 0.8764 0.1403 0.4607
vn 0.8581 0.4774 0.1891
vn 0.7511 0.4505 0.4825
vn 0.9782 -0.1915 0.0806
vn 0.9548 -0.2974 0.0043
vn 0.9253 -0.1503 0.3483
vn 0.9235 -0.2555 0.2862
vn 0.9738 -0.1990 -0.1101
vn 0.8739 -0.1874 -0.4485
vn 0.9084 -0.3775 -0.1798
vn 0.7980 -0.4281 -0.4242
vn 0.3524 -0.9247 -0.1443
vn 0.2704 -0.8115 0.5180
vn 0.8274 -0.5448 -0.1363
vn 0.8222 -0.4869 0.2950
vn 0.1830 0.9741 -0.1327
vn 0.2060 0.8341 -0.5116
vn 0.5478 0.8225 -0.1527
vn 0.5301 0.6959 -0.4845
vn 0.1814 0.9610 0.2087
vn 0.5426 0.8128 0.2121
vn 0.2077 0.8321 0.5142
vn 0.5341 0.6932 0.4839
vn 0.9399 0.1280 -0.3166
vn 0.2035 0.1947 -0.9595
vn 0.3634 -0.1851 0.9130
vn 0.7790 0.0522 -0.6248
vn 0.9784 -0.1866 -0.0886
vn 0.8777 -0.3462 0.3314
vn -0.1879 0.1450 0.9714
vn -0.2098 0.4495 0.8683
vn -0.5676 0.1569 0.8082
vn -0.5332 0.4352 0.7254
vn -0.2053 -0.0927 0.9743
vn -0.6352 -0.1067 0.7650
vn -0.2303 -0.3704 0.8998
vn -0.7029 -0.2947 0.6474
vn -0.1859 0.1699 -0.9678
vn -0.5479 0.1841 -0.8161
vn -0.2060 0.5116 -0.8341
vn -0.5301 0.4845 -0.6959
vn -0.1899 -0.0807 -0.9785
vn -0.1600 -0.2528 -0.9542
vn -0.5732 -0.1345 -0.8083
vn -0.7007 -0.3250 -0.6352
vn -0.9821 0.1377 -0.1284
vn -0.8628 0.4811 -0.1553
vn -0.8587 0.1766 -0.4811
vn -0.7433 0.4730 -0.4730
vn -0.9811 0.1192 0.1522
vn -0.8764 0.1403 0.4607
vn -0.8581 0.4774 0.1891
vn -0.7511 0.4505 0.4825
vn -0.9782 -0.1915 0.0806
vn -0.9548 -0.2974 0.0043
vn -0.9253 -0.1503 0.3483
vn -0.9235 -0.2555 0.2862
vn -0.9738 -0.1990 -0.1101
vn -0.8739 -0.1874 -0.4485
vn -0.9084 -0.3775 -0.1798
vn -0.7980 -0.4281 -0.4242
vn -0.3524 -0.9247 -0.1443
vn -0.2704 -0.8115 0.5180
vn -0.8274 -0.5448 -0.1363
vn -0.8222 -0.4869 0.2950
vn -0.1830 0.9741 -0.1327
vn -0.2060 0.8341 -0.5116
vn -0.5478 0.8225 -0.1527
vn -0.5301 0.6959 -0.4845
vn -0.1814 0.9610 0.2087
vn -0.5426 0.8128 0.2121
vn -0.2077 0.8321 0.5142
vn -0.5341 0.6932 0.4839
vn -0.9399 0.1280 -0.3166
vn -0.2035 0.1947 -0.9595
vn -0.3634 -0.1851 0.9130
vn -0.7790 0.0522 -0.6248
vn -0.9784 -0.1866 -0.0886
vn -0.8777 -0.3462 0.3314
usemtl None
s off
f 46//1 1//1 2//1 47//1
f 47//2 2//2 24//2 81//2
f 1//3 22//3 23//3 2//3
f 2//4 23//4 38//4 24//4
f 46//5 48//5 3//5 1//5
f 1//6 3//6 21//6 22//6
f 48//7 82//7 25//7 3//7
f 3//8 25//8 37//8 21//8
f 52//9 53//9 5//9 4//9
f 4//10 5//10 27//10 28//10
f 53//11 84//11 26//11 5//11
f 5//12 26//12 40//12 27//12
f 52//13 4//13 6//13 55//13
f 55//14 6//14 30//14 90//14
f 4//15 28//15 29//15 6//15
f 6//16 29//16 39//16 30//16
f 7//17 11//17 12//17 8//17
f 8//18 12//18 31//18 32//18
f 11//19 28//19 27//19 12//19
f 12//20 27//20 40//20 31//20
f 7//21 8//21 13//21 9//21
f 9//22 13//22 23//22 22//22
f 8//23 32//23 33//23 13//23
f 13//24 33//24 38//24 23//24
f 7//25 9//25 14//25 10//25
f 10//26 14//26 34//26 35//26
f 9//27 22//27 21//27 14//27
f 14//28 21//28 37//28 34//28
f 7//29 10//29 15//29 11//29
f 11//30 15//30 29//30 28//30
f 10//31 35//31 36//31 15//31
f 15//32 36//32 39//32 29//32
f 67//33 16//33 17//33 68//33
f 68//34 17//34 25//34 82//34
f 16//35 35//35 34//35 17//35
f 17//36 34//36 37//36 25//36
f 71//37 18//37 19//37 72//37
f 72//38 19//38 26//38 84//38
f 18//39 32//39 31//39 19//39
f 19//40 31//40 40//40 26//40
f 71//41 73//41 20//41 18//41
f 18//42 20//42 33//42 32//42
f 73//43 81//43 24//43 20//43
f 20//44 24//44 38//44 33//44
f 39//45 36//45 45//45 43//45
f 90//46 30//46 42//46 104//46
f 16//47 67//47 106//47 44//47
f 30//48 39//48 43//48 42//48
f 36//49 35//49 41//49 45//49
f 35//50 16//50 44//50 41//50
f 46//51 47//51 50//51 49//51
f 47//52 81//52 80//52 50//52
f 49//53 50//53 79//53 78//53
f 50//54 80//54 98//54 79//54
f 46//55 49//55 51//55 48//55
f 49//56 78//56 77//56 51//56
f 48//57 51//57 83//57 82//57
f 51//58 77//58 97//58 83//58
f 52//59 54//59 56//59 53//59
f 54//60 87//60 86//60 56//60
f 53//61 56//61 85//61 84//61
f 56//62 86//62 100//62 85//62
f 52//63 55//63 57//63 54//63
f 55//64 90//64 89//64 57//64
f 54//65 57//65 88//65 87//65
f 57//66 89//66 99//66 88//66
f 58//67 59//67 63//67 62//67
f 59//68 92//68 91//68 63//68
f 62//69 63//69 86//69 87//69
f 63//70 91//70 100//70 86//70
f 58//71 60//71 64//71 59//71
f 60//72 78//72 79//72 64//72
f 59//73 64//73 93//73 92//73
f 64//74 79//74 98//74 93//74
f 58//75 61//75 65//75 60//75
f 61//76 95//76 94//76 65//76
f 60//77 65//77 77//77 78//77
f 65//78 94//78 97//78 77//78
f 58//79 62//79 66//79 61//79
f 62//80 87//80 88//80 66//80
f 61//81 66//81 96//81 95//81
f 66//82 88//82 99//82 96//82
f 67//83 68//83 70//83 69//83
f 68//84 82//84 83//84 70//84
f 69//85 70//85 94//85 95//85
f 70//86 83//86 97//86 94//86
f 71//87 72//87 75//87 74//87
f 72//88 84//88 85//88 75//88
f 74//89 75//89 91//89 92//89
f 75//90 85//90 100//90 91//90
f 71//91 74//91 76//91 73//91
f 74//92 92//92 93//92 76//92
f 73//93 76//93 80//93 81//93
f 76//94 93//94 98//94 80//94
f 99//95 103//95 107//95 96//95
f 90//96 104//96 102//96 89//96
f 69//97 105//97 106//97 67//97
f 89//98 102//98 103//98 99//98
f 96//99 107//99 101//99 95//99
f 95//100 101//100 105//100 69//100
